<svg id="Capa_1" data-name="Capa 1" xmlns="http://www.w3.org/2000/svg" viewBox="0 0 174.91 30.58"><defs><style>.cls-1{fill:#fff;}</style></defs><title>logo-noche</title><g id="Layer_1" data-name="Layer 1"><polygon class="cls-1" points="80.68 11.87 87.33 3.87 89.69 1.44 92.26 0.76 92.34 0.52 92.36 0.28 92.38 0 91.89 0 91.61 0.07 82.9 0 82.92 0.14 82.94 0.35 82.99 0.5 83.09 0.73 85.73 1.37 85.83 1.61 85.71 1.8 85.68 1.87 82.21 7.25 79.66 10.64 79.53 10.45 79.12 10.01 73.46 1.54 73.63 1.32 76.53 0.85 76.91 0.59 76.93 0.48 76.98 0.38 77.02 0 75.75 0.07 64.38 0.05 64.45 0.35 64.47 0.59 64.54 0.69 67.16 1.44 67.49 1.75 76.62 13.85 76.7 14.2 76.62 14.33 68.77 24.66 66.22 27.37 63.55 28.13 63.53 28.22 63.48 28.27 63.32 28.77 63.43 28.81 63.79 28.81 64.07 28.74 73.77 28.81 73.75 28.57 73.72 28.31 73.7 28.03 73.36 27.99 73.25 27.94 70.37 27.46 70.4 27.32 70.47 27.11 70.49 26.99 74.73 19.8 77.75 15.46 77.99 15.67 83.02 21.82 88.4 27.63 91.82 30.58 93.33 30.11 81.95 13.9 80.68 11.87"/><path class="cls-1" d="M134.23,31.17H134l-3.09-.54-.12-.17v-.09h0l-1.2-2.59-4.17-10.67-4.23-12.5.33-.12,2.71-.4V3.62h0V3.29L112,3.36v.78h.49l2.6.47V4.9l-8.5,22.39L105,30.71h-.14l-.1.05-2.92.47-.24.22-.07.13v.21l-.07.19h10.85l-.07-.28v-.4l-3.46-.57v-.49l.19-1,2.57-9.94h.18l6.68-.48,2.64.1.08.23v.12l.11.14,3.92,11.26-.24.14-3.84.54,0,.65,1.06-.07,12.53.07-.17-.8ZM112.36,17.3l-.11-.09,4.13-11.66.19-.14,4.07,12Z" transform="translate(0 -3.21)"/><polygon class="cls-1" points="46.64 27.46 46.57 26.47 46.5 3.11 46.73 1.39 50.82 0.8 50.98 0.59 51 0.38 51.12 0.1 37.17 0.1 37.25 0.33 37.27 0.5 37.32 0.57 37.44 0.73 41.59 1.39 41.82 5.73 41.68 27.46 41.26 27.46 37.27 28.13 37.25 28.29 37.2 28.41 37.17 28.6 37.34 28.77 37.58 28.81 38.5 28.74 51.17 28.81 50.95 28.03 46.64 27.46"/><polygon class="cls-1" points="21.75 3.28 20.57 2.17 18.82 1.18 16.04 0.43 11.09 0 0.02 0.12 0 0.28 0.05 0.5 0.05 0.85 0.23 0.87 4.22 1.39 4.38 1.56 4.41 1.75 4.46 1.87 4.58 3.9 4.5 27.46 2.66 27.68 0.09 28.13 0.07 28.29 0.02 28.41 0 28.6 0.16 28.77 0.4 28.81 1.32 28.74 14.7 28.81 14.41 28.01 14.2 27.96 9.31 27.46 9.17 22.3 9.31 1.28 10.95 1.28 13.66 1.75 15.05 2.36 16.63 3.66 17.41 5.05 17.88 6.94 17.69 9.75 17.01 11.65 15.73 13.4 13.73 14.82 11.68 15.55 11.49 15.79 11.39 16.49 11.61 16.61 11.8 16.59 15.22 15.6 18 14.18 19.81 12.77 21.54 10.67 22.44 8.59 22.76 6.09 22.5 4.72 21.75 3.28"/><path class="cls-1" d="M165,18.62l-1-1.87.05-.11.24-.1,1.44-1,1.81-1.78L169,11.64l.69-2.06-.19-1.93-.57-1.16-1-1.11-1.6-.92L164,3.82l-6-.54-12.13.12v.73l4.37.54.16,2.22-.07,23.78H150l-4.06.67v.16l-.05.12v.19L146,32h.21l.7-.07,12.75.07v-.43l-.07-.35h-.14l-4.25-.55-.14-11.89,3-.21,1,.12,1.64,2,7.57,8.14,4.18,3.89,1,.54,1.46-.33-4-5.09Zm-4-2.29-2.28.8-2.34.45H155l.14-13.09,3,.14,2.88.82,1.67,1,1.14,1.21.66,1.58.09,1.77-.54,2.1L163,14.84Z" transform="translate(0 -3.21)"/></g></svg>