<svg xmlns="http://www.w3.org/2000/svg" viewBox="0 0 175 35"><title>logo</title><g id="Layer_1" data-name="Layer 1"><polygon points="80.68 15.08 87.33 7.08 89.69 4.65 92.26 3.97 92.34 3.73 92.36 3.49 92.38 3.21 91.89 3.21 91.61 3.28 82.9 3.21 82.92 3.35 82.94 3.56 82.99 3.71 83.09 3.94 85.73 4.58 85.83 4.82 85.71 5.01 85.68 5.08 82.21 10.46 79.66 13.85 79.53 13.66 79.12 13.22 73.46 4.75 73.63 4.53 76.53 4.06 76.91 3.8 76.93 3.69 76.98 3.59 77.02 3.21 75.75 3.28 64.38 3.26 64.45 3.56 64.47 3.8 64.54 3.9 67.16 4.65 67.49 4.96 76.62 17.06 76.7 17.41 76.62 17.54 68.77 27.87 66.22 30.58 63.55 31.34 63.53 31.43 63.48 31.48 63.32 31.98 63.43 32.02 63.79 32.02 64.07 31.95 73.77 32.02 73.75 31.78 73.72 31.52 73.7 31.24 73.36 31.2 73.25 31.15 70.37 30.67 70.4 30.53 70.47 30.32 70.49 30.2 74.73 23.01 77.75 18.67 77.99 18.88 83.02 25.03 88.4 30.84 91.82 33.79 93.33 33.32 81.95 17.11 80.68 15.08"/><path d="M134.23,31.17H134l-3.09-.54-.12-.17,0-.09,0,0-1.2-2.59-4.17-10.67-4.23-12.5.33-.12,2.71-.4,0-.28,0-.19,0,0,0-.33-12.24.07v.78h.49l2.6.47,0,.29-8.5,22.39-1.6,3.42-.14,0-.1.05-2.92.47-.24.22-.07.13,0,.21-.07.19h10.85l-.07-.28,0-.4-3.46-.57v-.49l.19-1,2.57-9.94.18,0,6.68-.48,2.64.1.08.23,0,.12.11.14,3.92,11.26-.24.14-3.84.54L121,32l1.06-.07,12.53.07-.17-.8ZM112.36,17.3l-.11-.09,4.13-11.66.19-.14,4.07,12Z"/><polygon points="46.64 30.67 46.57 29.68 46.5 6.32 46.73 4.6 50.82 4.01 50.98 3.8 51 3.59 51.12 3.31 37.17 3.31 37.25 3.54 37.27 3.71 37.32 3.78 37.44 3.94 41.59 4.6 41.82 8.94 41.68 30.67 41.26 30.67 37.27 31.34 37.25 31.5 37.2 31.62 37.17 31.81 37.34 31.98 37.58 32.02 38.5 31.95 51.17 32.02 50.95 31.24 46.64 30.67"/><polygon points="21.75 6.49 20.57 5.38 18.82 4.39 16.04 3.64 11.09 3.21 0.02 3.33 0 3.49 0.05 3.71 0.05 4.06 0.23 4.08 4.22 4.6 4.38 4.77 4.41 4.96 4.46 5.08 4.58 7.11 4.5 30.67 2.66 30.89 0.09 31.34 0.07 31.5 0.02 31.62 0 31.81 0.16 31.98 0.4 32.02 1.32 31.95 14.7 32.02 14.41 31.22 14.2 31.17 9.31 30.67 9.17 25.51 9.31 4.49 10.95 4.49 13.66 4.96 15.05 5.57 16.63 6.87 17.41 8.26 17.88 10.15 17.69 12.96 17.01 14.86 15.73 16.61 13.73 18.03 11.68 18.76 11.49 19 11.39 19.7 11.61 19.82 11.8 19.8 15.22 18.81 18 17.39 19.81 15.98 21.54 13.88 22.44 11.8 22.76 9.3 22.5 7.93 21.75 6.49"/><path d="M165,18.62,164,16.75l.05-.11.24-.1,1.44-1,1.81-1.78L169,11.64l.69-2.06-.19-1.93-.57-1.16-1-1.11-1.6-.92L164,3.82l-6-.54-12.13.12,0,.16,0,.22v.35l4.37.54.16,2.22-.07,23.78H150l-4.06.67,0,.16-.05.12,0,.19L146,32l.21,0,.7-.07,12.75.07v-.43l-.07-.35-.14,0-4.25-.55-.14-11.89,3-.21,1,.12,1.64,2,7.57,8.14,4.18,3.89,1,.54,1.46-.33-4-5.09ZM161,16.33l-2.28.8-2.34.45h-1.34l.14-13.09,3,.14,2.88.82,1.67,1,1.14,1.21.66,1.58.09,1.77-.54,2.1L163,14.84Z"/></g></svg>